# xmcd
#
# Track frame offsets: 
#        150
#        23487
#        43435
#        67617
#        104526
#        126703
#        150829
#        195174
#        216995
#        235334
#        263061
#        284628
#        301081
#
# Disc length: 4343 seconds
#
# Revision: 0
# Processed by: cddbd v1.5.2PL0 Copyright (c) Steve Scherf et al.
# Submitted via: ExactAudioCopy v0.95a5
#
DISCID=b210f50d
DTITLE=Stoney Curtis Band - Raw and Real
DYEAR=2006
DGENRE=Blues
TTITLE0=That's Right
TTITLE1=Sometimes She Likes Me
TTITLE2=Girlfriend
TTITLE3=Behind The Sun
TTITLE4=American Lady
TTITLE5=Black Rose
TTITLE6=Blues Without You
TTITLE7=Eli's Blues
TTITLE8=Coldwater Canyon
TTITLE9=Rain Over Me
TTITLE10=Love and Money
TTITLE11=Dirt
TTITLE12=Ridin' Hard, Livin' Free
EXTD=
EXTT0=
EXTT1=
EXTT2=
EXTT3=
EXTT4=
EXTT5=
EXTT6=
EXTT7=
EXTT8=
EXTT9=
EXTT10=
EXTT11=
EXTT12=
PLAYORDER=
